HIERARCHY
ROOT Beta:Hips
{
	OFFSET 0.00 0.00 0.00
	CHANNELS 6 Xposition Yposition Zposition Yrotation Xrotation Zrotation
	JOINT Beta:Spine
	{
		OFFSET	0.0000	9.2263	1.5771
		CHANNELS 3 Xrotation Yrotation Zrotation
		JOINT Beta:Spine1
		{
			OFFSET	0.0000	16.2540	-0.1656
			CHANNELS 3 Xrotation Yrotation Zrotation
			JOINT Beta:Spine2
			{
				OFFSET	0.0000	13.6396	-1.2923
				CHANNELS 3 Xrotation Yrotation Zrotation
				JOINT Beta:Neck
				{
					OFFSET	0.0000	13.8774	-4.3542
					CHANNELS 3 Xrotation Yrotation Zrotation
					JOINT Beta:Neck1
					{
						OFFSET	0.0000	4.3400	0.9269
						CHANNELS 3 Xrotation Yrotation Zrotation
						JOINT Beta:Head
						{
							OFFSET	0.0000	4.0266	0.8585
							CHANNELS 3 Xrotation Yrotation Zrotation
							End Site
							{
								OFFSET 0.0000 23.0297 0.1231
							}
						}
					}
				}
				JOINT Beta:LeftShoulder
				{
					OFFSET	6.1442	10.1870	-3.7932
					CHANNELS 3 Zrotation Xrotation Yrotation
					JOINT Beta:LeftArm
					{
						OFFSET	12.3191	-1.1130	-1.7935
						CHANNELS 3 Zrotation Xrotation Yrotation
						JOINT Beta:LeftForeArm
						{
							OFFSET	27.6870	0.0000	0.0000
							CHANNELS 3 Xrotation Zrotation Yrotation
							JOINT Beta:LeftHand
							{
								OFFSET	27.8738	0.0000	0.0000
								CHANNELS 3 Zrotation Yrotation Xrotation
								JOINT Beta:LeftHandThumb1
								{
									OFFSET	2.3785	-1.0029	2.6209
									CHANNELS 3 Zrotation Xrotation Yrotation
									JOINT Beta:LeftHandThumb2
									{
										OFFSET	3.3624	-1.0029	2.8398
										CHANNELS 3 Zrotation Xrotation Yrotation
										JOINT Beta:LeftHandThumb3
										{
											OFFSET	4.5018	-1.3445	2.1783
											CHANNELS 3 Zrotation Xrotation Yrotation
											End Site
											{
												OFFSET 2.6000 -1.0000 1.0000
											}
										}
									}
								}
								JOINT Beta:LeftHandMiddle1
								{
									OFFSET	10.4639	0.6148	0.4298
									CHANNELS 3 Zrotation Xrotation Yrotation
									JOINT Beta:LeftHandMiddle2
									{
										OFFSET	5.7921	0.0000	0.0000
										CHANNELS 3 Zrotation Xrotation Yrotation
										JOINT Beta:LeftHandMiddle3
										{
											OFFSET	3.7132	0.0000	0.0000
											CHANNELS 3 Zrotation Xrotation Yrotation
											End Site
											{
												OFFSET 2.3000 0.0000 0.0000
											}
										}
									}
								}
								JOINT Beta:LeftHandIndex1
								{
									OFFSET	10.3945	0.6148	2.7055
									CHANNELS 3 Zrotation Xrotation Yrotation
									JOINT Beta:LeftHandIndex2
									{
										OFFSET	5.5493	0.0000	0.0000
										CHANNELS 3 Zrotation Xrotation Yrotation
										JOINT Beta:LeftHandIndex3
										{
											OFFSET	3.3911	0.0000	0.0000
											CHANNELS 3 Zrotation Xrotation Yrotation
											End Site
											{
												OFFSET 2.5000 0.0000 0.0000
											}
										}
									}
								}
								JOINT Beta:LeftHandRing1
								{
									OFFSET	10.3252	0.3211	-1.8755
									CHANNELS 3 Zrotation Xrotation Yrotation
									JOINT Beta:LeftHandRing2
									{
										OFFSET	5.4452	0.0000	0.0000
										CHANNELS 3 Zrotation Xrotation Yrotation
										JOINT Beta:LeftHandRing3
										{
											OFFSET	3.7132	0.0000	0.0000
											CHANNELS 3 Zrotation Xrotation Yrotation
											End Site
											{
												OFFSET 2.0000 0.0000 0.0000
											}
										}
									}
								}
								JOINT Beta:LeftHandPinky1
								{
									OFFSET	10.0130	-0.0783	-3.9671
									CHANNELS 3 Zrotation Xrotation Yrotation
									JOINT Beta:LeftHandPinky2
									{
										OFFSET	3.6763	0.0000	0.0000
										CHANNELS 3 Zrotation Xrotation Yrotation
										JOINT Beta:LeftHandPinky3
										{
											OFFSET	2.8113	0.0000	0.0000
											CHANNELS 3 Zrotation Xrotation Yrotation
											End Site
											{
												OFFSET 2.9000 0.0000 0.0000
											}
										}
									}
								}
							}
						}
					}
				}
				JOINT Beta:RightShoulder
				{
					OFFSET	-6.1402	10.1870	-3.7932
					CHANNELS 3 Zrotation Xrotation Yrotation
					JOINT Beta:RightArm
					{
						OFFSET	-12.3231	-1.1130	-1.7935
						CHANNELS 3 Zrotation Xrotation Yrotation
						JOINT Beta:RightForeArm
						{
							OFFSET	-27.6870	0.0000	0.0000
							CHANNELS 3 Xrotation Zrotation Yrotation
							JOINT Beta:RightHand
							{
								OFFSET	-27.8738	0.0000	0.0000
								CHANNELS 3 Zrotation Yrotation Xrotation
								JOINT Beta:RightHandThumb1
								{
									OFFSET	-2.5178	-0.9367	2.5137
									CHANNELS 3 Zrotation Xrotation Yrotation
									JOINT Beta:RightHandThumb2
									{
										OFFSET	-3.2638	-1.0870	2.9669
										CHANNELS 3 Zrotation Xrotation Yrotation
										JOINT Beta:RightHandThumb3
										{
											OFFSET	-4.4165	-1.3703	2.1350
											CHANNELS 3 Zrotation Xrotation Yrotation
											End Site
											{
												OFFSET -2.6000 -1.0000 1.0000
											}
										}
									}
								}
								JOINT Beta:RightHandIndex1
								{
									OFFSET	-10.4665	0.4896	2.7120
									CHANNELS 3 Zrotation Xrotation Yrotation
									JOINT Beta:RightHandIndex2
									{
										OFFSET	-5.3768	0.0000	0.0000
										CHANNELS 3 Zrotation Xrotation Yrotation
										JOINT Beta:RightHandIndex3
										{
											OFFSET	-3.3855	0.0000	0.0000
											CHANNELS 3 Zrotation Xrotation Yrotation
											End Site
											{
												OFFSET -2.6000 0.0000 0.0000
											}
										}
									}
								}
								JOINT Beta:RightHandMiddle1
								{
									OFFSET	-10.7596	0.4896	0.4278
									CHANNELS 3 Zrotation Xrotation Yrotation
									JOINT Beta:RightHandMiddle2
									{
										OFFSET	-5.6168	0.0000	0.0000
										CHANNELS 3 Zrotation Xrotation Yrotation
										JOINT Beta:RightHandMiddle3
										{
											OFFSET	-3.7364	0.0000	0.0000
											CHANNELS 3 Zrotation Xrotation Yrotation
											End Site
											{
												OFFSET -2.3000 0.0000 0.0000
											}
										}
									}
								}
								JOINT Beta:RightHandRing1
								{
									OFFSET	-10.4702	0.3879	-1.9363
									CHANNELS 3 Zrotation Xrotation Yrotation
									JOINT Beta:RightHandRing2
									{
										OFFSET	-5.4013	0.0000	0.0000
										CHANNELS 3 Zrotation Xrotation Yrotation
										JOINT Beta:RightHandRing3
										{
											OFFSET	-3.3916	0.0000	0.0000
											CHANNELS 3 Zrotation Xrotation Yrotation
											End Site
											{
												OFFSET -2.2000 0.0000 0.0000
											}
										}
									}
								}
								JOINT Beta:RightHandPinky1
								{
									OFFSET	-9.9715	-0.1191	-3.9540
									CHANNELS 3 Zrotation Xrotation Yrotation
									JOINT Beta:RightHandPinky2
									{
										OFFSET	-3.6528	0.0000	0.0000
										CHANNELS 3 Zrotation Xrotation Yrotation
										JOINT Beta:RightHandPinky3
										{
											OFFSET	-2.7820	0.0000	0.0000
											CHANNELS 3 Zrotation Xrotation Yrotation
											End Site
											{
												OFFSET -2.9000 0.0000 0.0000
											}
										}
									}
								}
							}
						}
					}
				}
			}
		}
	}
	JOINT Beta:LeftUpLeg
	{
		OFFSET	9.6338	-3.2733	0.0000
		CHANNELS 3 Xrotation Yrotation Zrotation
		JOINT Beta:LeftLeg
		{
			OFFSET	0.0000	-41.7300	-1.7300
			CHANNELS 3 Xrotation Yrotation Zrotation
			JOINT Beta:LeftFoot
			{
				OFFSET	0.0126	-39.1900	-0.8477
				CHANNELS 3 Xrotation Yrotation Zrotation
				JOINT Beta:LeftToeBase
				{
					OFFSET	-0.1833	-12.1931	8.2823
					CHANNELS 3 Xrotation Yrotation Zrotation
					End Site
					{
						OFFSET 0.0000 0.0000 10.1681
					}
				}
			}
		}
	}
	JOINT Beta:RightUpLeg
	{
		OFFSET	-9.6338	-3.2733	0.0000
		CHANNELS 3 Xrotation Yrotation Zrotation
		JOINT Beta:RightLeg
		{
			OFFSET	0.0000	-41.7300	-1.7300
			CHANNELS 3 Xrotation Yrotation Zrotation
			JOINT Beta:RightFoot
			{
				OFFSET	0.0126	-39.1900	-0.8477
				CHANNELS 3 Xrotation Yrotation Zrotation
				JOINT Beta:RightToeBase
				{
					OFFSET	-0.1833	-12.1931	8.2823
					CHANNELS 3 Xrotation Yrotation Zrotation
					End Site
					{
						OFFSET 0.0032 0.0000 10.1681
					}
				}
			}
		}
	}
}
MOTION
Frames: 5
Frame Time: 0.0333333
-0.1637 94.3123 0.1325 2.4857 -2.3875 -2.0210 14.3190 1.0913 2.4946 -4.3440 0.8443 -0.9325 -4.3291 0.7720 -1.0301 -0.1004 -1.6899 2.6226 -0.0000 0.0000 -0.0000 -5.8407 -0.4607 -1.5401 -1.3413 2.3091 2.6542 -73.4384 6.8405 -5.7671 13.6633 -8.8591 -10.6490 8.4608 4.6190 5.6991 2.7008 0.6039 20.4827 0.6806 -1.8277 -4.3878 4.7145 -0.2646 4.6498 -24.6647 3.8112 -10.1219 -24.5389 0.5295 -2.4425 -24.4099 0.5247 -2.4288 -20.8371 4.3644 -10.0750 -22.0683 0.3779 -2.1722 -21.9511 0.4259 -2.1755 -29.5768 4.0319 -11.4909 -27.9481 0.6854 -2.7545 -27.7741 0.6715 -2.7465 -34.2269 4.2169 -13.1299 -31.2029 0.8429 -3.0536 -30.9913 0.8342 -3.0308 4.4010 3.4686 -0.0300 67.7832 23.6800 10.7339 8.4197 4.4505 19.9081 -8.6880 -4.6938 -14.8611 4.0742 3.9766 -29.0051 -0.2672 -1.3586 3.5552 -3.1361 -3.0403 4.2625 20.3114 2.4843 5.0222 19.8445 0.2244 1.5479 19.7085 0.2664 1.5562 22.5609 2.0642 6.1723 21.3833 0.3227 1.7076 21.2415 0.3100 1.6927 26.3769 2.3114 8.1028 24.0804 0.4059 1.9033 23.9003 0.3946 1.8911 30.3257 2.6300 10.4563 26.9003 0.5046 2.1104 26.6902 0.4971 2.0951 -29.3576 4.3094 5.5647 65.0553 1.6010 0.5186 -6.5543 0.6878 -7.5165 0.9686 -0.0000 -0.0000 -9.5855 -4.7641 5.8936 29.6191 6.9570 0.9281 -14.6329 1.6970 -9.6572 0.8714 -0.0000 -0.0000 
0.0430 94.1784 3.2722 1.6349 -1.9153 -1.6161 13.8232 1.2510 2.2451 -4.2172 1.1617 -1.1535 -4.1975 1.0536 -1.2805 0.3472 -1.6722 2.5821 -0.0000 0.0000 -0.0000 -6.7699 -0.3857 -1.8111 -1.3062 2.3093 2.7305 -73.8123 6.0618 -4.8098 13.6797 -8.8539 -10.4730 7.9592 4.6592 5.6968 2.3789 0.8748 20.1195 0.4706 -1.5731 -4.1491 4.9682 -0.3846 4.6857 -23.6727 3.3309 -9.1972 -24.6913 0.5223 -2.4091 -23.4400 0.4842 -2.3425 -19.5670 4.1831 -9.1344 -21.7248 0.3626 -2.1253 -21.3130 0.3963 -2.1055 -28.1988 3.2734 -10.2277 -28.3400 0.6935 -2.7681 -26.8929 0.6300 -2.6129 -33.6009 3.2681 -11.9174 -31.5106 0.8559 -3.0638 -29.8836 0.7766 -2.9207 4.3583 3.4619 0.0484 67.3625 25.4557 10.9097 6.7559 0.9831 22.5240 -8.2281 -5.4937 -15.0093 4.2586 4.3090 -26.7801 0.1418 -0.7052 2.6334 -3.5627 -3.5657 4.7571 17.1792 2.0483 4.7406 17.6423 0.1630 1.3470 17.3488 0.2060 1.3475 19.3268 1.3745 5.3015 21.8540 0.3132 1.6401 18.7779 0.2414 1.5042 22.6870 1.3306 5.7675 24.6374 0.3943 1.9066 22.9912 0.3558 1.7067 27.3646 1.0254 7.1236 26.0216 0.4576 2.0183 26.4471 0.4883 2.0469 -31.3276 5.0334 4.4151 55.6489 1.0320 0.4632 -6.7355 -0.8917 -4.9392 1.9000 -0.6957 0.2489 -7.2944 -5.5171 5.3111 28.8160 8.5876 0.7875 -16.6658 2.2247 -10.7777 1.0230 -0.2495 0.2910 
0.2834 93.9606 6.3095 0.3933 -1.1586 -1.4696 13.2762 1.4739 1.7104 -4.1614 1.3740 -0.9170 -4.1425 1.2813 -1.0641 0.8420 -1.2764 1.9582 -0.0000 0.0000 -0.0000 -7.4355 -0.1977 -1.7855 -2.1029 2.3104 2.9534 -73.9802 5.1206 -3.7964 14.0533 -8.7342 -10.2975 8.1545 4.0687 5.6816 2.0412 1.1660 19.7335 0.2456 -1.3052 -3.8947 5.2369 -0.5133 4.7197 -22.5736 2.8161 -8.2107 -24.8277 0.5132 -2.3713 -22.3858 0.4440 -2.2472 -18.1877 3.9877 -8.1279 -21.3362 0.3480 -2.0716 -20.6120 0.3678 -2.0264 -26.6780 2.4604 -8.8793 -28.7319 0.7007 -2.7803 -25.9338 0.5862 -2.4681 -32.8881 2.2425 -10.6095 -31.8237 0.8728 -3.0703 -28.6944 0.7168 -2.8015 3.6677 3.4324 0.4747 66.0963 27.0215 12.0340 5.7467 -0.3224 25.0897 -9.9124 -5.6104 -15.0747 4.4079 4.7165 -24.2525 0.6215 0.0330 1.6021 -4.0821 -4.1138 5.2692 13.6203 1.5900 4.3467 15.1844 0.1064 1.1171 14.6946 0.1471 1.1096 15.6617 0.6610 4.2000 22.4184 0.3013 1.5650 15.9968 0.1806 1.2882 18.4749 0.2843 2.9871 25.3191 0.3844 1.9121 21.9505 0.3103 1.4953 23.9650 -0.6679 3.1644 25.0968 0.4091 1.9176 26.1293 0.4768 1.9891 -32.5598 5.3261 3.4246 44.8319 -0.2355 0.5390 -6.4826 -1.8897 -1.4289 1.5466 -1.3358 -0.9231 -5.3889 -6.3591 4.8072 27.9548 10.6264 0.6259 -18.3608 2.7216 -11.4593 1.1101 -0.2869 0.4310 
0.5607 93.6817 9.4780 -0.9772 -0.5956 -1.6583 12.7860 1.7099 1.3814 -3.9653 1.5027 -0.6202 -3.9478 1.4385 -0.7775 1.1557 -0.7132 1.4441 -0.0000 0.0000 -0.0000 -7.6120 0.1759 -1.7660 -3.2412 2.3069 3.2705 -73.8515 4.1649 -2.9404 14.5268 -8.6459 -10.0300 8.7923 3.6110 5.6532 1.6934 1.4732 19.3309 0.0089 -1.0285 -3.6285 5.5164 -0.6499 4.7484 -21.3902 2.2749 -7.1777 -24.9516 0.5026 -2.3303 -21.2698 0.4013 -2.1408 -16.7255 3.7817 -7.0745 -20.9138 0.3324 -2.0139 -19.8642 0.3414 -1.9410 -25.0418 1.6058 -7.4563 -29.1222 0.7052 -2.7925 -24.9166 0.5413 -2.3149 -32.0925 1.1610 -9.2375 -32.1398 0.8900 -3.0762 -27.4450 0.6565 -2.6751 2.9322 3.4123 1.1987 64.5745 27.2959 13.5084 4.3402 -0.7057 27.5954 -12.2062 -4.7572 -13.5188 4.5213 5.1650 -21.6472 1.1227 0.7970 0.5227 -4.6362 -4.6467 5.8452 9.9480 1.1597 3.9026 12.6162 0.0631 0.8752 11.9319 0.0959 0.8597 11.8435 0.0179 2.9811 23.0019 0.2873 1.4883 13.1200 0.1291 1.0616 14.0886 -0.6764 -0.0021 26.0236 0.3766 1.9164 20.8978 0.2627 1.2785 20.3519 -2.2248 -1.1272 24.1259 0.3610 1.8121 25.8433 0.4637 1.9325 -33.3169 5.9352 3.2523 34.7278 -1.8108 0.6150 -6.9932 -2.4848 1.6656 1.2454 -2.6000 -1.6778 -2.9837 -7.7437 4.3464 26.6662 13.5130 0.4671 -19.6751 3.1573 -11.8270 1.1150 -0.3974 0.4454 
0.8705 93.2248 12.8563 -2.4503 -0.9139 -1.9925 13.5645 2.0519 1.2704 -3.9368 1.7418 -0.5688 -3.9133 1.6898 -0.7607 1.1702 -0.4061 1.7909 -0.0000 0.0000 -0.0000 -7.5840 0.7065 -2.1178 -3.6623 2.3051 3.3886 -74.1402 3.2159 -1.9789 14.7518 -8.5082 -10.1240 9.4651 3.0713 5.6161 1.3415 1.7921 18.9174 -0.2363 -0.7475 -3.3542 5.8028 -0.7904 4.7766 -20.1457 1.7155 -6.1137 -25.0662 0.4926 -2.2868 -20.1136 0.3594 -2.0299 -15.2098 3.5674 -6.0023 -20.4691 0.3162 -1.9535 -19.0859 0.3151 -1.8519 -23.3199 0.7264 -5.9791 -29.5099 0.7071 -2.8048 -23.8615 0.4966 -2.1559 -31.2220 0.0422 -7.8236 -32.4555 0.9004 -3.0813 -26.1554 0.5968 -2.5433 2.5654 3.3913 1.2665 63.6389 27.1931 14.7880 5.0559 -2.3456 30.0116 -14.4691 -3.8232 -13.6426 4.6150 5.6160 -19.1863 1.5953 1.5260 -0.5435 -5.1529 -5.1511 6.5239 6.4613 0.7841 3.4732 10.0940 0.0311 0.6378 9.2566 0.0563 0.6169 8.1629 -0.4801 1.7684 23.5344 0.2720 1.4158 10.3739 0.0908 0.8427 9.8994 -1.4273 -2.9377 26.6511 0.3720 1.9162 19.9547 0.2182 1.0782 16.7973 -3.4655 -5.4113 23.1091 0.3230 1.7023 25.6954 0.4539 1.8879 -33.6464 7.1396 3.6957 27.7184 -5.3448 0.6447 -7.0363 -2.8658 6.7406 -0.0311 -2.3179 -5.5847 0.1119 -8.3480 4.1190 25.9235 15.6245 0.1791 -21.0755 3.5434 -11.9116 1.0754 -0.5313 0.2431 
